<svg width="21" height="18" viewBox="0 0 21 18" fill="none" xmlns="http://www.w3.org/2000/svg">
<path d="M2 10H13.1667C13.6389 10 14 9.56667 14 9C14 8.43333 13.6389 8 13.1667 8H1.98727L0.0523948 1.21417C-0.068167 0.88027 0.022254 0.485666 0.293518 0.242833C0.564782 2.23517e-07 0.926468 -0.0607084 1.25801 0.0607082L20.4575 8.16526C20.789 8.31703 21 8.65093 21 9.01518C21 9.37943 20.789 9.71332 20.4575 9.86509L1.25801 17.9393C1.16759 17.9696 1.04703 18 0.926468 18C0.715485 18 0.474361 17.9089 0.323659 17.7572C0.052395 17.5143 -0.038027 17.1501 0.0825348 16.7858L2 10Z" fill="#001134"/>
</svg>
