<svg width="32" height="32" viewBox="0 0 32 32" fill="none" xmlns="http://www.w3.org/2000/svg">
<path d="M28.3749 16C28.3749 9.174 22.8259 3.62 16.0049 3.62C9.17889 3.62 3.62489 9.174 3.62489 16C3.62489 18.367 4.28289 20.64 5.53289 22.606L3.70189 26.995C3.55689 27.341 3.61889 27.738 3.86089 28.025C4.05289 28.253 4.33389 28.379 4.62489 28.379C4.69889 28.379 4.77489 28.37 4.84989 28.354L10.4489 27.063C12.1609 27.925 14.0739 28.379 16.0059 28.379C22.8259 28.38 28.3749 22.826 28.3749 16ZM16.0049 26.38C14.2759 26.38 12.5669 25.947 11.0629 25.128C10.9149 25.047 10.7499 25.006 10.5839 25.006C10.5089 25.006 10.4339 25.015 10.3589 25.031L6.29689 25.968L7.58389 22.882C7.71589 22.566 7.67689 22.204 7.47989 21.923C6.26689 20.191 5.62489 18.143 5.62489 16C5.62489 10.276 10.2809 5.62 16.0049 5.62C21.7229 5.62 26.3749 10.276 26.3749 16C26.3749 21.724 21.7229 26.38 16.0049 26.38Z" fill="#F0F0F0"/>
<path d="M20 15H17V12C17 11.448 16.553 11 16 11C15.447 11 15 11.448 15 12V15H12C11.447 15 11 15.448 11 16C11 16.552 11.447 17 12 17H15V20C15 20.553 15.447 21 16 21C16.553 21 17 20.553 17 20V17H20C20.553 17 21 16.552 21 16C21 15.448 20.553 15 20 15Z" fill="#F0F0F0"/>
</svg>
